<svg xmlns="http://www.w3.org/2000/svg" viewBox="0 0 131.39 86.9">
  <path fill="#FF5F00" d="M48.37,15.14h34.66v56.61H48.37z"/>
  <path fill="#EB001B" d="M51.94,43.45c0-11.52,5.39-21.77,13.75-28.31C58.83,8.92,50.18,5.74,40.95,5.74 C18.33,5.74,0,24.07,0,46.69s18.33,40.95,40.95,40.95c9.23,0,17.88-3.18,24.74-9.4C57.33,65.21,51.94,54.97,51.94,43.45z"/>
  <path fill="#F79E1B" d="M131.39,46.69c0,22.62-18.33,40.95-40.95,40.95c-9.23,0-17.88-3.18-24.74-9.4 c8.36-6.54,13.75-16.79,13.75-28.31c0-11.52-5.39-21.77-13.75-28.31c6.86-6.22,15.51-9.4,24.74-9.4 C113.06,5.74,131.39,24.07,131.39,46.69z"/>
</svg>